<svg xmlns="http://www.w3.org/2000/svg" viewBox="0 0 144 144">
  <path fill="#fff" d="M72 0C32.2 0 0 32.2 0 72s32.2 72 72 72 72-32.2 72-72S111.8 0 72 0z"/>
  <path fill="#000" d="M72 8c35.3 0 64 28.7 64 64s-28.7 64-64 64S8 107.3 8 72 36.7 8 72 8m0-8C32.2 0 0 32.2 0 72s32.2 72 72 72 72-32.2 72-72S111.8 0 72 0z"/>
  <path fill="#F74C00" d="M67.5 23.7l-4.5 8.5-4.5-8.5h-6.8l8.2 13.5v9.3h6.2v-9.3l8.2-13.5h-6.8zm-26.2 0v22.8h6.1V34.9l7.1 11.6h5.8l-9.5-14.4 8.5-8.4h-7.5l-10.5 11.2V23.7h-6.1v-.1zm51.4 0l-10.5 11.2V23.7h-6.1v22.8h6.1V34.9l7.1 11.6h5.8l-9.5-14.4 8.5-8.4h-7.4zm-25.2 31.7c-17.5 0-31.7 14.2-31.7 31.7s14.2 31.7 31.7 31.7 31.7-14.2 31.7-31.7-14.2-31.7-31.7-31.7zm0 52.5c-11.5 0-20.8-9.3-20.8-20.8s9.3-20.8 20.8-20.8 20.8 9.3 20.8 20.8-9.3 20.8-20.8 20.8z"/>
  <circle fill="#F74C00" cx="67.5" cy="87.1" r="10.4"/>
</svg>
